<svg xmlns="http://www.w3.org/2000/svg" xmlns:xlink="http://www.w3.org/1999/xlink" version="1.1" x="0px" y="0px" viewBox="0 0 100 125" style="enable-background:new 0 0 100 100;" xml:space="preserve"><path d="M55.5773544,97.5H44.422596c-2.992691,0-5.5384712-2.2345428-5.9215355-5.1973114l-0.8758621-6.6133423  c-4.559864-1.5771484-8.7027473-3.9718018-12.3418598-7.1325836l-6.1699333,2.5537643  c-2.7622528,1.1496887-5.972414,0.0558624-7.4617767-2.5432892l-5.5753846-9.6374664  c-1.4893627-2.5981522-0.8279777-5.9250298,1.5372462-7.7430916l5.2950687-4.0640755  C12.4546671,54.7803268,12.2252274,52.3886681,12.2252274,50s0.2294397-4.7803268,0.6833315-7.1226044l-5.2940712-4.0630798  c-2.3662214-1.8190575-3.0276065-5.1459312-1.5402389-7.7390995l5.5793748-9.64744  c1.4883652-2.5936661,4.6975288-3.687994,7.4627743-2.5373039l6.1669407,2.5527668  c3.6391125-3.1607819,7.7819958-5.5554333,12.3418598-7.1325817l0.8758621-6.6178389  C38.8841248,4.7345428,41.4299049,2.5,44.422596,2.5h11.1547585c2.9926949,0,5.538475,2.2345428,5.9215393,5.1973076  l0.8758621,6.6133499c4.5598679,1.5771484,8.7027435,3.9717999,12.3418579,7.1325817l6.1699371-2.5537643  c2.7612534-1.1511879,5.9714127-0.05686,7.4617767,2.5432892l5.5753784,9.6374645  c1.4893646,2.598156,0.82798,5.9250298-1.5372391,7.7430916l-5.2950745,4.0640755  C87.5452881,45.2196732,87.7747269,47.6113319,87.7747269,50s-0.2294388,4.7803268-0.6833344,7.1226044l5.294075,4.0630798  c0,0,0.0009995,0.0004997,0.0009995,0.0009956c2.3652191,1.8180618,3.0266037,5.1449394,1.539238,7.738102l-5.5793762,9.647438  c-1.4883652,2.5946655-4.6945343,3.6894913-7.4627762,2.5373077l-6.1669388-2.5527649  c-3.6391144,3.1607819-7.7819901,5.5554352-12.3418579,7.1325836l-0.8758621,6.617836  C61.1158295,95.2654572,58.5700493,97.5,55.5773544,97.5z M25.5855999,75.2413559  c0.3760815,0,0.7461777,0.1381683,1.0334759,0.4015198c3.722908,3.4031906,8.0503387,5.9045792,12.8635864,7.4338455  c0.5666161,0.1800613,0.9776115,0.6708603,1.0554199,1.2594299l1.0015564,7.5690155  c0.1865425,1.4444656,1.425518,2.5303192,2.8829575,2.5303192h11.1547585c1.4574432,0,2.6964149-1.0858536,2.8829613-2.5258331  l1.0015526-7.5735016c0.0778122-0.5885696,0.4888077-1.0793686,1.0554237-1.2594299  c4.8132439-1.5292664,9.1406746-4.0306549,12.8635826-7.4338455c0.4389343-0.4020157,1.0733795-0.5132446,1.6190491-0.2848053  l7.0577621,2.9213715c1.3487091,0.5601273,2.9078979,0.0284271,3.6331329-1.2364807l5.5793686-9.6474457  c0.725235-1.2649078,0.4040146-2.8914337-0.7511597-3.7797661l-6.0562134-4.6471519  c-0.4718475-0.362114-0.6923065-0.965641-0.5636215-1.5467224c0.538681-2.4305649,0.8110199-4.9274673,0.8110199-7.421875  s-0.2723389-4.9913101-0.8110199-7.421875c-0.128685-0.5810814,0.091774-1.1846085,0.5636215-1.5467224l6.0572052-4.6481476  c1.1541824-0.8873329,1.4754028-2.5138626,0.7481766-3.7837601l-5.575386-9.6374645  c-0.7272263-1.2694016-2.288414-1.8011017-3.6321259-1.242466l-7.0607605,2.9223633  c-0.5466614,0.2274437-1.1811142,0.1172123-1.6190491-0.2848053c-3.722908-3.4031887-8.0503387-5.9045811-12.8635826-7.4338455  c-0.5666161-0.1800594-0.9776115-0.6708622-1.0554237-1.2594242l-1.0015526-7.5690155  c-0.1865463-1.4444728-1.425518-2.5303211-2.8829613-2.5303211H44.422596c-1.4574394,0-2.6964149,1.0858483-2.8829575,2.5258322  l-1.0015564,7.5735044c-0.0778084,0.588562-0.4888039,1.0793648-1.0554199,1.2594242  c-4.8132477,1.5292645-9.1406784,4.0306568-12.8635864,7.4338455c-0.4379311,0.4025173-1.070385,0.5147438-1.6190453,0.2848053  l-7.0577641-2.9213657c-1.3487072-0.5586357-2.9069014-0.0279331-3.6331282,1.2364807l-5.5793743,9.647438  c-0.7252293,1.2649117-0.4040136,2.8914413,0.7511654,3.7797699l6.0562096,4.6471519  c0.4718485,0.362114,0.6923094,0.965641,0.5636244,1.5467224C15.5620785,45.0086899,15.2897434,47.5055923,15.2897434,50  s0.2723351,4.9913101,0.8110199,7.421875c0.128685,0.5810814-0.0917759,1.1846085-0.5636244,1.5467224L9.4799318,63.616745  c-1.1541815,0.8873367-1.4753971,2.5138626-0.7481728,3.7837601l5.5753841,9.6374664  c0.7272243,1.2694016,2.2894087,1.8001022,3.6321306,1.2424622l7.0607567-2.9223633  C25.18857,75.2797623,25.3880825,75.2413559,25.5855999,75.2413559z M49.9999771,67.917244  c-9.8798714,0-17.917244-8.0378723-17.917244-17.917244s8.0373726-17.917244,17.917244-17.917244  S67.9172211,40.1206284,67.9172211,50S59.8798485,67.917244,49.9999771,67.917244z M49.9999771,35.1472702  c-8.1899986,0-14.8527298,6.6627312-14.8527298,14.8527298s6.6627312,14.8527298,14.8527298,14.8527298  S64.8527069,58.1899986,64.8527069,50S58.1899757,35.1472702,49.9999771,35.1472702z"/><text x="0" y="115" fill="#000000" font-size="5px" font-weight="bold" font-family="'Helvetica Neue', Helvetica, Arial-Unicode, Arial, Sans-serif">Created by khafidul firanda</text><text x="0" y="120" fill="#000000" font-size="5px" font-weight="bold" font-family="'Helvetica Neue', Helvetica, Arial-Unicode, Arial, Sans-serif">from the Noun Project</text></svg>