<svg xmlns="http://www.w3.org/2000/svg" xmlns:xlink="http://www.w3.org/1999/xlink" version="1.1" x="0px" y="0px" viewBox="0 0 76.746 112.5" style="enable-background:new 0 0 76.746 90;" xml:space="preserve"><g><path d="M52.345,55.597c-1.64-0.946-3.45-2.306-3.854-3.338c-0.352-1.271-0.375-3.054,0.472-5.629h-0.03   c5.725-5.896,10.101-15.394,10.101-24.732C59.033,7.529,49.479,0,38.377,0C27.268,0,17.768,7.529,17.768,21.897   c0,9.38,4.352,18.911,10.111,24.794c0.864,2.268,0.762,3.945,0.308,5.213h-0.014c-0.164,1.024-2.066,2.483-3.806,3.505   C12.947,59.679,0,67.14,0,74.512c0,2.043,0,0.806,0,2.835C0,87.656,19.988,90,38.486,90c0.15,0,0.297-0.007,0.447-0.007   c0.089,0,0.178,0.007,0.267,0.007c0.403,0,0.799-0.007,1.188-0.018c17.951-0.16,36.357-2.681,36.357-12.636   c0-2.029,0-0.792,0-2.835C76.746,67.034,64.141,59.744,52.345,55.597z M19.517,21.897c0-14.874,10.159-20.148,18.86-20.148   c9.411,0,18.907,6.228,18.907,20.148c0,8.273-3.771,17.504-9.605,23.513c-0.26,0.263-0.417,0.598-0.468,0.949   c-0.649,2.081-0.851,3.939-0.591,5.538c-1.094,1.12-3.826,3.361-8.247,3.361c-4.406,0-7.188-2.286-8.312-3.443   c0.435-1.729,0.25-3.655-0.55-5.749c-0.085-0.223-0.215-0.428-0.383-0.599C23.291,39.504,19.517,30.249,19.517,21.897z    M29.307,53.517c1.64,1.496,4.688,3.491,9.066,3.491c4.267,0,7.267-1.858,8.927-3.341c1.113,1.626,3.375,3.02,4.591,3.683   c-1.038,4.434-4.004,16.271-7.669,23.68c-1.623-7.468-4.693-14.361-4.693-14.361s3.914-1.715,3.914-4.509   c0-3.443-5.069-5.151-5.069-5.151s-5.083,1.209-5.083,5.151c0,2.675,3.929,4.509,3.929,4.509s-3.071,6.928-4.697,14.354   c-3.692-7.45-6.688-19.376-7.737-23.83C26.038,56.502,28.237,55.122,29.307,53.517z M38.861,64.957l-0.505,0.222l-0.428-0.205   c-1.182-0.56-2.89-1.886-2.89-2.814c0-1.858,2.285-2.856,3.272-3.204c1.343,0.566,3.382,1.824,3.382,3.204   C41.693,63.307,39.743,64.561,38.861,64.957z M1.749,77.347v-2.835c0-5.739,10.44-12.38,21.361-16.739   c1.476,6.471,4.677,18.803,8.905,25.908c-0.249,1.51-0.402,3.006-0.447,4.444C12.274,87.424,1.749,83.66,1.749,77.347z    M39.2,88.142c-1.377,0-2.604-0.055-3.628-0.137c-0.943-0.078-1.719-0.178-2.251-0.273c0.027-0.598,0.109-1.216,0.177-1.831   c0.089-0.816,0.205-1.636,0.353-2.47c1.093-6.189,3.528-12.547,4.522-14.959c0.994,2.401,3.427,8.731,4.52,14.97   c0.144,0.833,0.263,1.653,0.355,2.47c0.071,0.659,0.15,1.325,0.181,1.964c-0.488,0.089-1.277,0.175-2.363,0.226   C40.519,88.125,39.921,88.142,39.2,88.142z M74.997,77.347c0,6.334-10.528,10.099-29.822,10.788   c-0.048-1.441-0.202-2.938-0.447-4.44c4.212-7.078,7.385-19.355,8.844-25.792c10.948,4.13,21.426,10.651,21.426,16.609V77.347z"/></g><text x="0" y="105" fill="#000000" font-size="5px" font-weight="bold" font-family="'Helvetica Neue', Helvetica, Arial-Unicode, Arial, Sans-serif">Created by Douglas Machado</text><text x="0" y="110" fill="#000000" font-size="5px" font-weight="bold" font-family="'Helvetica Neue', Helvetica, Arial-Unicode, Arial, Sans-serif">from the Noun Project</text></svg>