<svg xmlns="http://www.w3.org/2000/svg" xmlns:xlink="http://www.w3.org/1999/xlink" version="1.1" x="0px" y="0px" viewBox="0 0 100 125" enable-background="new 0 0 100 100" xml:space="preserve"><path d="M74.312,67.396L74.312,67.396L74.312,67.396l-0.008-0.011l-0.272-0.272l-2.995-2.988l-5.021-5.018  c4.125-6.713,3.286-15.616-2.521-21.43c-5.819-5.815-14.725-6.658-21.434-2.534l-5.015-5.015c9.15-6.525,21.791-5.965,30.349,1.679  c0.267,0.379,0.608,0.708,0.991,0.979l0.021-0.027c0.044,0.037,0.071,0.076,0.114,0.118c0.64,0.411,1.398,0.651,2.217,0.651  c2.261,0,4.1-1.839,4.1-4.104c0-0.88-0.271-1.688-0.734-2.356l0.055-0.055c-0.16-0.157-0.317-0.305-0.479-0.458  c-0.061-0.049-0.117-0.106-0.177-0.162C60.904,14.455,41.087,14.537,28.58,26.636c-0.304,0.229-0.572,0.5-0.8,0.801  c-0.47,0.625-0.76,1.385-0.808,2.212c-0.004,0.072-0.011,0.143-0.011,0.223c0,1.05,0.405,2.003,1.058,2.726l0.272,0.268l3.01,3.009  l5.015,5.015c-3.423,5.568-3.423,12.648,0.001,18.219c0.7,1.142,1.54,2.224,2.533,3.207c5.813,5.819,14.71,6.658,21.427,2.535  l5.016,5.016c-9.521,6.783-22.819,5.91-31.36-2.628c-0.979-0.983-1.856-2.023-2.631-3.114l-0.114,0.104  c-0.688-0.535-1.555-0.859-2.498-0.859c-2.238,0-4.053,1.811-4.053,4.059c0,0.941,0.323,1.805,0.863,2.495l-0.004,0.003  c0.825,1.061,1.715,2.086,2.687,3.057C40.789,85.59,61.166,85.67,73.876,73.239c0.099-0.084,0.187-0.164,0.28-0.259  c0.095-0.095,0.189-0.2,0.283-0.299c0.574-0.699,0.926-1.601,0.926-2.572C75.365,69.066,74.958,68.12,74.312,67.396z M44.411,56.755  c-1.029-1.032-1.767-2.241-2.225-3.522c-0.753-2.09-0.753-4.38,0-6.472c0.458-1.282,1.195-2.49,2.225-3.521  c1.025-1.027,2.234-1.761,3.521-2.224c3.378-1.211,7.285-0.478,9.993,2.224c2.695,2.701,3.437,6.621,2.226,9.992  c-0.459,1.283-1.198,2.49-2.226,3.522c-1.026,1.031-2.233,1.761-3.528,2.228C51.025,60.193,47.113,59.456,44.411,56.755z"/><text x="0" y="115" fill="#000000" font-size="5px" font-weight="bold" font-family="'Helvetica Neue', Helvetica, Arial-Unicode, Arial, Sans-serif">Created by Pablo Rozenberg</text><text x="0" y="120" fill="#000000" font-size="5px" font-weight="bold" font-family="'Helvetica Neue', Helvetica, Arial-Unicode, Arial, Sans-serif">from the Noun Project</text></svg>