<svg xmlns="http://www.w3.org/2000/svg" viewBox="0 0 20 25" x="0px" y="0px"><path d="M12.5,18h-7a.49971.49971,0,0,1-.5-.5V14.53076a3.37889,3.37889,0,0,0-.64648-2.06933A6.49243,6.49243,0,0,1,8.11133,2.14453a6.54513,6.54513,0,0,1,5.48828,1.311A6.4753,6.4753,0,0,1,15.99805,8.3457l1.60351,2.40576a.99973.99973,0,0,1-.38476,1.44922L16,12.80908V14a2.00229,2.00229,0,0,1-2,2h-.5a.50065.50065,0,0,0-.5.5v1A.49971.49971,0,0,1,12.5,18ZM6,17h6v-.5A1.50164,1.50164,0,0,1,13.5,15H14a1.001,1.001,0,0,0,1-1V12.5a.5011.5011,0,0,1,.27637-.44727l1.49316-.74658L15.084,8.77734A.50053.50053,0,0,1,15,8.5a5.47889,5.47889,0,0,0-2.03223-4.26855A5.53852,5.53852,0,0,0,8.31445,3.124a5.49315,5.49315,0,0,0-3.16992,8.72559A4.32664,4.32664,0,0,1,6,14.53076ZM16,8.5h0Zm-2,0a.49971.49971,0,0,1-.5.5h-.54791a3.46248,3.46248,0,0,1-.65937,1.58569l.38941.38941a.49995.49995,0,1,1-.707.707l-.38941-.38941A3.462,3.462,0,0,1,10,11.95209V12.5a.5.5,0,0,1-1,0v-.54791a3.46222,3.46222,0,0,1-1.58569-.65937l-.38941.38941a.49995.49995,0,0,1-.707-.707l.38941-.38941A3.46238,3.46238,0,0,1,6.048,9H5.5a.5.5,0,0,1,0-1h.548a3.46238,3.46238,0,0,1,.65931-1.58569L6.31787,6.0249a.49995.49995,0,0,1,.707-.707l.38941.38941A3.46222,3.46222,0,0,1,9,5.04791V4.5a.5.5,0,0,1,1,0v.54791a3.462,3.462,0,0,1,1.58569.65937l.38941-.38941a.49995.49995,0,0,1,.707.707l-.38941.38941A3.46248,3.46248,0,0,1,12.95209,8H13.5A.49971.49971,0,0,1,14,8.5ZM11.26776,6.73224a2.5,2.5,0,1,0,0,3.53552A2.48364,2.48364,0,0,0,11.26776,6.73224Z"/><text x="0" y="35" fill="#000000" font-size="5px" font-weight="bold" font-family="'Helvetica Neue', Helvetica, Arial-Unicode, Arial, Sans-serif">Created by Sophia</text><text x="0" y="40" fill="#000000" font-size="5px" font-weight="bold" font-family="'Helvetica Neue', Helvetica, Arial-Unicode, Arial, Sans-serif">from the Noun Project</text></svg>