<svg xmlns="http://www.w3.org/2000/svg" data-name="Layer 1" viewBox="0 0 95 118.75" x="0px" y="0px"><path d="M80.956,30.875,48.721,16.821a3,3,0,0,0-2.443,0L14.044,30.875h0a3.058,3.058,0,0,0,0,5.6l1.315.574V51.491a3.023,3.023,0,0,0-1.991,2.832v7.186a3.027,3.027,0,1,0,6.054,0V54.323a3.023,3.023,0,0,0-1.991-2.832V37.957l4.5,1.96V64.73a4.341,4.341,0,0,0,2.693,4.058l22.037,9.294a4.3,4.3,0,0,0,3.533-.048l20.3-9.227a4.36,4.36,0,0,0,2.581-4.01V39.917l7.884-3.437a3.058,3.058,0,0,0,0-5.6ZM17.35,61.509a.955.955,0,1,1-1.91,0V54.323a.967.967,0,0,1,.955-.954.955.955,0,0,1,.955.954ZM71,64.8a2.279,2.279,0,0,1-1.367,2.123l-20.3,9.227a2.218,2.218,0,0,1-1.871.027L25.426,66.88A2.272,2.272,0,0,1,24,64.73V40.821l22.279,9.713a2.984,2.984,0,0,0,2.443,0L71,40.82Zm9.127-30.216L47.894,48.634a.936.936,0,0,1-.788,0L17.5,35.726a2.332,2.332,0,0,1,2.265-1.8H32.639a1.037,1.037,0,0,0,0-2.073H19.764A4.4,4.4,0,0,0,15.6,34.9l-.724-.315a.986.986,0,0,1,0-1.808L47.105,18.721a.931.931,0,0,1,.789,0L80.127,32.774a.985.985,0,0,1,0,1.807Z"/><text x="0" y="110" fill="#000000" font-size="5px" font-weight="bold" font-family="'Helvetica Neue', Helvetica, Arial-Unicode, Arial, Sans-serif">Created by Bahrul Ulum</text><text x="0" y="115" fill="#000000" font-size="5px" font-weight="bold" font-family="'Helvetica Neue', Helvetica, Arial-Unicode, Arial, Sans-serif">from the Noun Project</text></svg>